# xmcd CD database file
#
# Track frame offsets:
#	150
#	19187
#	40167
#	54539
#	84074
#	100907
#	124724
#	137981
#	173632
#	210500
#	228678
#	256026
#	282933
#
# Disc length: 4320 seconds
#
# Revision: 0
# Processed by: cddbd v1.5.2PL0 Copyright (c) Steve Scherf et al.
# Submitted via: CDex 1.70beta2
#
DISCID=a910de0d
DTITLE=Sinikka Langeland - Starflowers
DYEAR=2007
DGENRE=Jazz
TTITLE0=Høstnatt på Fjellskogen
TTITLE1=Den lille fløyten
TTITLE2=Sølv
TTITLE3=Treet som vekser opp-ned
TTITLE4=Saltstein
TTITLE5=Sus i myrulll
TTITLE6=Støv
TTITLE7=Stjernestund
TTITLE8=Langt innpå skoga
TTITLE9=Det er ei slik natt
TTITLE10=Vindtreet
TTITLE11=Elghjertet
TTITLE12=Har du lyttet til elvene om natta?
EXTD=YEAR: 2007
EXTT0=
EXTT1=
EXTT2=
EXTT3=
EXTT4=
EXTT5=
EXTT6=
EXTT7=
EXTT8=
EXTT9=
EXTT10=
EXTT11=
EXTT12=
PLAYORDER=
